<svg width="120" height="60" viewBox="0 0 120 60" fill="none" xmlns="http://www.w3.org/2000/svg">
<path d="M26.04 33.4438C27.9595 33.4438 29.5156 31.8878 29.5156 29.9682C29.5156 28.0487 27.9595 26.4927 26.04 26.4927C24.1205 26.4927 22.5645 28.0487 22.5645 29.9682C22.5645 31.8878 24.1205 33.4438 26.04 33.4438Z" fill="white"/>
<path fill-rule="evenodd" clip-rule="evenodd" d="M26.0402 22.9016C30.7067 22.9016 35.0417 23.5712 38.3102 24.6964C42.2484 26.0523 44.6697 28.1073 44.6697 29.9682C44.6697 31.9073 42.1036 34.0905 37.8745 35.4917C34.6772 36.551 30.4699 37.104 26.0402 37.104C21.4987 37.104 17.198 36.585 13.9647 35.4801C9.87403 34.0819 7.41016 31.8704 7.41016 29.9682C7.41016 28.1224 9.72203 26.0832 13.6048 24.7295C16.8856 23.5857 21.3276 22.9016 26.0396 22.9016H26.0402Z" stroke="white" stroke-width="1.66272"/>
<path fill-rule="evenodd" clip-rule="evenodd" d="M19.8884 26.4553C22.2197 22.4129 24.9653 18.9922 27.5729 16.7228C30.7148 13.9886 33.7047 12.9178 35.3167 13.8474C36.9966 14.8161 37.6058 18.1298 36.7069 22.4932C36.0279 25.7922 34.4044 29.713 32.1915 33.5503C29.9226 37.4846 27.3246 40.9508 24.7524 43.1991C21.4976 46.0443 18.351 47.0739 16.7031 46.1236C15.1041 45.2022 14.4927 42.1802 15.2597 38.1402C15.9079 34.7268 17.5343 30.5371 19.8877 26.4552L19.8884 26.4553Z" stroke="white" stroke-width="1.66272"/>
<path fill-rule="evenodd" clip-rule="evenodd" d="M19.8943 33.5608C17.5564 29.523 15.9647 25.4351 15.3003 22.0426C14.5005 17.9551 15.066 14.8299 16.6765 13.8976C18.3547 12.9261 21.5299 14.0531 24.8612 17.0111C27.38 19.2474 29.9663 22.6115 32.1857 26.4451C34.4611 30.3756 36.1665 34.3576 36.83 37.7088C37.6694 41.9497 36.99 45.19 35.3437 46.143C33.7463 47.0677 30.8232 46.0887 27.7063 43.4064C25.0727 41.1403 22.2552 37.6386 19.8943 33.5607V33.5608Z" stroke="white" stroke-width="1.66272"/>
<path fill-rule="evenodd" clip-rule="evenodd" d="M64.62 38.8479L60.36 32.4119C62.513 32.2219 64.453 30.6619 64.453 27.8119C64.453 24.9119 62.395 23.0559 59.508 23.0559H53.168V38.8359H55.132V32.5659H58.279L62.301 38.8359L64.62 38.8479ZM59.273 30.8509H55.133V24.8179H59.273C61.143 24.8179 62.42 26.0479 62.42 27.8229C62.42 29.5979 61.142 30.8529 59.273 30.8529V30.8509ZM71.931 39.1309C73.801 39.1309 75.338 38.5159 76.474 37.3809L75.622 36.2209C74.722 37.1439 73.398 37.6639 72.097 37.6639C69.637 37.6639 68.122 35.8659 67.98 33.7139H77.23V33.2639C77.23 29.8339 75.195 27.1359 71.74 27.1359C68.475 27.1359 66.11 29.8099 66.11 33.1219C66.11 36.6949 68.547 39.1219 71.93 39.1219L71.931 39.1309ZM75.481 32.4109H67.981C68.076 30.6609 69.281 28.6009 71.719 28.6009C74.322 28.6009 75.457 30.7069 75.481 32.4109ZM89.015 38.8469V30.9919C89.015 28.2239 87.005 27.1349 84.591 27.1349C82.721 27.1349 81.255 27.7499 80.025 29.0279L80.853 30.2579C81.87 29.1699 82.983 28.6729 84.355 28.6729C86.011 28.6729 87.242 29.5479 87.242 31.0859V33.1439C86.319 32.0789 85.018 31.5819 83.456 31.5819C81.516 31.5819 79.456 32.7889 79.456 35.3439C79.456 37.8279 81.514 39.1299 83.456 39.1299C84.994 39.1299 86.296 38.5859 87.242 37.5449V38.8449L89.015 38.8469ZM84.095 37.8529C82.439 37.8529 81.279 36.8129 81.279 35.3689C81.279 33.9019 82.439 32.8609 84.095 32.8609C85.349 32.8609 86.555 33.3339 87.242 34.2809V36.4339C86.556 37.3799 85.349 37.8529 84.095 37.8529ZM97.595 39.1309C99.677 39.1309 100.907 38.2789 101.783 37.1439L100.6 36.0559C99.843 37.0729 98.873 37.5459 97.7 37.5459C95.263 37.5459 93.75 35.6529 93.75 33.1219C93.75 30.5909 95.264 28.7219 97.7 28.7219C98.883 28.7219 99.853 29.1719 100.6 30.2119L101.783 29.1239C100.908 27.9879 99.677 27.1369 97.595 27.1369C94.188 27.1369 91.893 29.7399 91.893 33.1229C91.893 36.5299 94.188 39.1229 97.595 39.1229V39.1309ZM107.155 39.1309C108.195 39.1309 108.835 38.8229 109.285 38.3979L108.765 37.0729C108.528 37.3329 108.065 37.5459 107.558 37.5459C106.778 37.5459 106.398 36.9309 106.398 36.0789V28.9809H108.718V27.4199H106.398V24.2969H104.623V27.4199H102.73V28.9819H104.623V36.4589C104.623 38.1629 105.475 39.1329 107.155 39.1329V39.1309Z" fill="white"/>
</svg>
